<?xml version="1.0" encoding="utf-8"?>
<!-- Generator: Adobe Illustrator 22.0.1, SVG Export Plug-In . SVG Version: 6.00 Build 0)  -->
<svg version="1.1" id="Слой_1" xmlns="http://www.w3.org/2000/svg" xmlns:xlink="http://www.w3.org/1999/xlink" x="0px" y="0px"
	 viewBox="0 0 1800 691.2" style="enable-background:new 0 0 1800 691.2;" xml:space="preserve">
<style type="text/css">
	.st0{fill:#870815;}
	.st1{fill:#030304;}
</style>
<g>
	<g>
		<path class="st0" d="M71.9,547.5h22.8l-30.1,36.4l32.7,39.5H73.9l-31-38.5v38.5H22.1v-75.9h20.7v36.9L71.9,547.5z"/>
		<path class="st0" d="M100.6,624.9H73.1l-28.8-35.8v35.8H20.6V546h23.7V580L71.2,546h26.7l-31.3,37.9L100.6,624.9z M74.6,621.9
			h19.6l-31.5-38L91.5,549H72.6l-28.1,35.6L74.6,621.9z M23.6,621.9h17.7V549H23.6V621.9z"/>
	</g>
	<g>
		<path class="st0" d="M149.9,624.8c-8.9,0-15.9-3.2-21-9.7h-1.1c0.7,6.3,1.1,10,1.1,11v30.8h-20.7V547.5h16.8l2.9,9.8h1
			c4.8-7.5,12-11.3,21.5-11.3c9,0,16,3.5,21.1,10.4c5.1,6.9,7.6,16.5,7.6,28.9c0,8.1-1.2,15.1-3.6,21.1c-2.4,6-5.8,10.5-10.2,13.7
			C161,623.2,155.9,624.8,149.9,624.8z M143.8,562.6c-5.1,0-8.9,1.6-11.2,4.7c-2.4,3.1-3.6,8.3-3.7,15.6v2.2c0,8.2,1.2,14,3.6,17.5
			c2.4,3.5,6.3,5.3,11.5,5.3c9.3,0,13.9-7.7,13.9-23c0-7.5-1.1-13.1-3.4-16.8C152.3,564.5,148.7,562.6,143.8,562.6z"/>
		<path class="st0" d="M130.5,658.3h-23.7V546h19.5l2.6,8.9c5.1-6.8,12.4-10.3,21.6-10.3c9.4,0,16.9,3.7,22.3,11
			c5.2,7.2,7.9,17.2,7.9,29.8c0,8.3-1.2,15.5-3.7,21.7c-2.5,6.2-6.1,11-10.7,14.3c-4.6,3.3-10.1,5-16.4,5c-8.3,0-15.1-2.7-20.2-8
			c0.6,5.8,0.7,7.2,0.7,7.8V658.3z M109.7,655.3h17.7v-29.3c0-0.6-0.2-3-1.1-10.8l-0.2-1.7h3.5l0.5,0.6c4.8,6.1,11.3,9.1,19.8,9.1
			c5.6,0,10.5-1.5,14.6-4.4c4.1-2.9,7.4-7.3,9.6-13c2.3-5.8,3.5-12.7,3.5-20.6c0-11.9-2.5-21.3-7.3-28c-4.8-6.6-11.3-9.8-19.9-9.8
			c-9,0-15.7,3.5-20.3,10.6l-0.4,0.7h-2.9L124,549h-14.2V655.3z M144.1,609.5c-5.8,0-10-2-12.7-5.9c-2.6-3.8-3.9-9.8-3.9-18.4v-2.2
			c0.1-7.7,1.4-13,4-16.5c2.6-3.5,6.8-5.3,12.4-5.3c5.4,0,9.5,2.1,12,6.3c2.4,4,3.6,9.9,3.6,17.6
			C159.5,601.3,154.3,609.5,144.1,609.5z M143.8,564.1c-4.7,0-7.9,1.3-10,4.1c-2.2,2.9-3.3,7.8-3.4,14.7v2.2
			c0,7.8,1.1,13.4,3.4,16.7c2.1,3.1,5.5,4.6,10.3,4.6c8.4,0,12.4-7,12.4-21.5c0-7.2-1.1-12.6-3.2-16
			C151.3,565.7,148.2,564.1,143.8,564.1z"/>
	</g>
	<g>
		<path class="st0" d="M265.3,585.3c0,12.4-3.3,22-9.8,29c-6.5,7-15.6,10.5-27.2,10.5c-7.3,0-13.7-1.6-19.3-4.8
			c-5.6-3.2-9.9-7.8-12.8-13.8c-3-6-4.5-12.9-4.5-20.9c0-12.4,3.2-22.1,9.7-28.9c6.5-6.9,15.6-10.3,27.3-10.3
			c7.3,0,13.7,1.6,19.3,4.8c5.6,3.2,9.9,7.7,12.8,13.7C263.8,570.4,265.3,577.3,265.3,585.3z M212.8,585.3c0,7.5,1.2,13.2,3.7,17
			c2.5,3.8,6.5,5.8,12.1,5.8c5.5,0,9.5-1.9,11.9-5.7c2.4-3.8,3.6-9.5,3.6-17.1c0-7.5-1.2-13.2-3.7-16.9s-6.5-5.6-12-5.6
			c-5.5,0-9.5,1.9-12,5.6C214,572.1,212.8,577.7,212.8,585.3z"/>
		<path class="st0" d="M228.3,626.3c-7.5,0-14.3-1.7-20-5c-5.8-3.3-10.3-8.2-13.4-14.4c-3.1-6.2-4.6-13.4-4.6-21.6
			c0-12.7,3.4-22.8,10.1-30c6.7-7.2,16.3-10.8,28.4-10.8c7.5,0,14.3,1.7,20,5c5.8,3.3,10.3,8.1,13.4,14.3c3.1,6.1,4.6,13.4,4.6,21.5
			c0,12.7-3.4,22.8-10.2,30C249.8,622.6,240.3,626.3,228.3,626.3z M228.7,547.5c-11.2,0-20.1,3.3-26.2,9.9c-6.2,6.6-9.3,16-9.3,27.9
			c0,7.7,1.5,14.5,4.3,20.2c2.8,5.7,7,10.1,12.2,13.1c5.3,3,11.6,4.6,18.5,4.6c11.1,0,19.9-3.4,26.1-10c6.2-6.7,9.4-16.1,9.4-28
			c0-7.7-1.5-14.5-4.3-20.2c-2.8-5.6-7-10-12.2-13C241.9,549.1,235.6,547.5,228.7,547.5z M228.5,609.6c-6.1,0-10.6-2.2-13.3-6.5
			c-2.6-4.1-3.9-10.1-3.9-17.9c0-7.8,1.3-13.8,3.9-17.8c2.7-4.2,7.2-6.3,13.2-6.3c6.1,0,10.6,2.1,13.3,6.3c2.6,4,3.9,10,3.9,17.7
			c0,7.8-1.3,13.8-3.9,17.9C239,607.5,234.6,609.6,228.5,609.6z M228.4,564.3c-5,0-8.5,1.6-10.7,4.9c-2.3,3.5-3.4,8.9-3.4,16.1
			c0,7.2,1.2,12.7,3.5,16.2c2.2,3.4,5.7,5.1,10.8,5.1c5,0,8.5-1.6,10.7-5c2.3-3.6,3.4-9,3.4-16.3c0-7.2-1.2-12.6-3.4-16.1
			C237,565.9,233.5,564.3,228.4,564.3z"/>
	</g>
	<g>
		<path class="st0" d="M352.5,567.4c0,4.1-1.3,7.5-3.8,10.4c-2.6,2.9-6.3,4.7-11.3,5.5v0.5c5.4,0.6,9.7,2.5,12.8,5.5
			c3.1,3.1,4.7,6.8,4.7,11.3c0,7.4-2.9,13-8.7,16.9c-5.8,3.9-14.1,5.8-24.9,5.8h-38.9v-75.9h38.9c10.4,0,18.2,1.7,23.4,5.1
			C349.9,555.9,352.5,560.8,352.5,567.4z M331.5,569c0-4.6-3.7-6.9-11-6.9h-17.4v15h15c4.4,0,7.7-0.6,10-1.9
			C330.4,573.9,331.5,571.9,331.5,569z M333.4,599.6c0-3-1.2-5.1-3.5-6.5c-2.3-1.3-5.8-2-10.4-2h-16.4v17.9H320
			c4.4,0,7.7-0.8,10-2.5C332.3,604.9,333.4,602.6,333.4,599.6z"/>
		<path class="st0" d="M321.3,624.9h-40.4V546h40.4c10.7,0,18.8,1.8,24.2,5.3c5.6,3.7,8.5,9.1,8.5,16.1c0,4.4-1.4,8.3-4.2,11.4
			c-1.8,2-4.2,3.6-7,4.7c3.3,1,6.2,2.7,8.4,4.9c3.4,3.3,5.2,7.5,5.2,12.4c0,7.9-3.1,14-9.4,18.1C341,622.9,332.3,624.9,321.3,624.9z
			 M283.9,621.9h37.4c10.4,0,18.5-1.9,24-5.6c5.4-3.6,8-8.7,8-15.6c0-4.1-1.4-7.4-4.3-10.2c-2.9-2.8-6.9-4.5-11.9-5.1l-1.3-0.2v-3.2
			l1.3-0.2c4.6-0.8,8.1-2.5,10.4-5.1c2.3-2.6,3.5-5.7,3.5-9.4c0-6-2.3-10.5-7.1-13.6c-4.9-3.2-12.5-4.8-22.6-4.8h-37.4V621.9z
			 M320,610.6h-18.3v-20.9h17.9c4.9,0,8.6,0.7,11.1,2.2c2.8,1.6,4.2,4.2,4.2,7.8c0,3.5-1.4,6.2-4.1,8.2
			C328.3,609.6,324.6,610.6,320,610.6z M304.6,607.6H320c4,0,7.1-0.7,9.1-2.2c1.9-1.4,2.8-3.2,2.8-5.7c0-2.5-0.9-4.1-2.7-5.2
			c-2.1-1.2-5.3-1.8-9.6-1.8h-14.9V607.6z M318.1,578.6h-16.5v-18h18.9c10.3,0,12.5,4.6,12.5,8.4c0,3.4-1.4,6-4.2,7.5
			C326.3,577.9,322.8,578.6,318.1,578.6z M304.6,575.6h13.5c4.1,0,7.2-0.6,9.3-1.7c1.8-1,2.6-2.6,2.6-4.9c0-1.5,0-5.4-9.5-5.4h-15.9
			V575.6z"/>
	</g>
	<g>
		<path class="st0" d="M405.7,624.8c-12.2,0-21.8-3.4-28.7-10.1c-6.9-6.7-10.3-16.3-10.3-28.7c0-12.7,3.2-22.6,9.5-29.5
			c6.4-7,15.2-10.4,26.4-10.4c10.7,0,19.1,3.1,25.1,9.2c6,6.1,9,14.6,9,25.3v10.1h-49c0.2,5.9,2,10.5,5.2,13.8c3.3,3.3,7.8,5,13.7,5
			c4.6,0,8.9-0.5,13-1.4c4.1-1,8.3-2.5,12.8-4.6v16c-3.6,1.8-7.5,3.2-11.6,4C416.6,624.3,411.6,624.8,405.7,624.8z M402.7,560.8
			c-4.4,0-7.8,1.4-10.3,4.2c-2.5,2.8-3.9,6.7-4.3,11.9h29.1c-0.1-5.1-1.4-9.1-4-11.9C410.6,562.2,407.1,560.8,402.7,560.8z"/>
		<path class="st0" d="M405.7,626.3c-12.6,0-22.6-3.5-29.7-10.5c-7.1-7-10.8-17-10.8-29.7c0-13,3.3-23.3,9.9-30.5
			c6.6-7.2,15.9-10.9,27.5-10.9c11.1,0,19.9,3.2,26.1,9.6c6.2,6.4,9.4,15.2,9.4,26.4v11.6h-48.9c0.4,4.7,2,8.5,4.7,11.2
			c3,3,7.2,4.5,12.7,4.5c4.4,0,8.7-0.5,12.6-1.4c4-0.9,8.2-2.4,12.5-4.4l2.1-1v19.3l-0.8,0.4c-3.7,1.9-7.7,3.3-12,4.2
			C416.8,625.8,411.7,626.3,405.7,626.3z M402.6,547.5c-10.7,0-19.2,3.3-25.3,9.9c-6.1,6.6-9.2,16.2-9.2,28.5
			c0,11.9,3.3,21.2,9.9,27.6c6.6,6.4,15.9,9.7,27.6,9.7c5.8,0,10.8-0.4,14.8-1.3c3.7-0.8,7.2-2,10.4-3.5v-12.8
			c-3.8,1.6-7.4,2.9-10.9,3.7c-4.2,1-8.6,1.5-13.3,1.5c-6.3,0-11.3-1.8-14.8-5.4c-3.5-3.6-5.4-8.5-5.7-14.8l-0.1-1.6h49v-8.6
			c0-10.3-2.9-18.5-8.5-24.3C420.9,550.5,412.9,547.5,402.6,547.5z M418.7,578.3h-32.2l0.1-1.6c0.4-5.4,1.9-9.7,4.7-12.7
			c2.8-3.1,6.6-4.7,11.4-4.7c4.8,0,8.7,1.6,11.6,4.7c2.8,3,4.3,7.4,4.4,12.8L418.7,578.3z M389.8,575.3h25.8c-0.3-4-1.5-7.1-3.5-9.3
			c-2.3-2.5-5.4-3.7-9.4-3.7c-4,0-7,1.2-9.2,3.7C391.5,568.2,390.3,571.3,389.8,575.3z"/>
	</g>
	<g>
		<path class="st0" d="M521.5,623.4h-20.7V563h-19.1c-1.5,17-3.2,29.6-5.3,38c-2.1,8.4-4.9,14.4-8.3,18.1c-3.5,3.7-8,5.6-13.6,5.6
			c-4.8,0-8.7-0.7-11.8-2.2V606c2.2,0.9,4.4,1.4,6.7,1.4c2.6,0,4.7-1.9,6.5-5.6c1.7-3.7,3.3-9.9,4.7-18.6c1.4-8.7,2.6-20.6,3.6-35.8
			h57.5V623.4z"/>
		<path class="st0" d="M454.4,626.3c-5,0-9.2-0.8-12.5-2.3l-0.9-0.4v-19.8l2.1,0.8c2,0.8,4.1,1.2,6.1,1.2c1.9,0,3.7-1.6,5.1-4.7
			c1.7-3.6,3.2-9.7,4.6-18.2c1.4-8.6,2.6-20.6,3.6-35.6l0.1-1.4H523v78.9h-23.7v-60.4h-16.2c-1.4,16.3-3.2,28.7-5.2,36.9
			c-2.1,8.6-5.1,14.9-8.7,18.8C465.4,624.2,460.5,626.3,454.4,626.3z M444.1,621.6c2.7,1.1,6.2,1.7,10.3,1.7c5.2,0,9.3-1.7,12.5-5.1
			c3.3-3.5,5.9-9.4,8-17.5c2.1-8.2,3.8-20.9,5.3-37.8l0.1-1.4h22v60.4H520V549h-54.6c-1,14.5-2.1,26.1-3.5,34.5
			c-1.4,8.9-3,15.1-4.8,19c-2,4.3-4.6,6.4-7.8,6.4c-1.7,0-3.4-0.3-5.2-0.7V621.6z"/>
	</g>
	<g>
		<path class="st0" d="M563.9,576.8h14.6c11.7,0,20.3,1.9,25.9,5.6c5.6,3.7,8.4,9.3,8.4,16.8c0,16.1-11.2,24.2-33.6,24.2h-36.1
			v-75.9h20.7V576.8z M592.2,599.5c0-2.9-1.2-5.1-3.5-6.4c-2.4-1.3-5.9-2-10.5-2h-14.2v17.9h14.5
			C587.6,609.1,592.2,605.9,592.2,599.5z"/>
		<path class="st0" d="M579.4,624.9h-37.6V546h23.7v29.3h13.1c11.9,0,20.9,2,26.8,5.8c6,4,9.1,10.1,9.1,18.1
			C614.4,616.3,602.6,624.9,579.4,624.9z M544.7,621.9h34.6c21.6,0,32.1-7.4,32.1-22.7c0-7-2.5-12.1-7.8-15.6
			c-5.3-3.5-13.8-5.3-25.1-5.3h-16.1V549h-17.7V621.9z M578.4,610.6h-16v-20.9h15.7c5,0,8.7,0.7,11.3,2.2c2.8,1.6,4.3,4.2,4.3,7.7
			C593.7,604.6,591,610.6,578.4,610.6z M565.4,607.6h13c11,0,12.3-4.6,12.3-8.1c0-2.4-0.9-4-2.8-5.1c-2.1-1.2-5.4-1.8-9.8-1.8h-12.7
			V607.6z"/>
	</g>
	<g>
		<path class="st0" d="M649.3,547.5v29.2h28.9v-29.2H699v75.9h-20.7v-31.3h-28.9v31.3h-20.7v-75.9H649.3z"/>
		<path class="st0" d="M700.5,624.9h-23.7v-31.3h-25.9v31.3h-23.7V546h23.7v29.2h25.9V546h23.7V624.9z M679.7,621.9h17.7V549h-17.7
			v29.2h-31.9V549h-17.7v72.9h17.7v-31.3h31.9V621.9z"/>
	</g>
	<g>
		<path class="st0" d="M741.4,576.8h10c11.6,0,20.2,1.9,25.7,5.6c5.6,3.7,8.4,9.3,8.4,16.8c0,8-2.8,14.1-8.4,18.1
			c-5.6,4.1-13.9,6.1-25,6.1h-31.4v-75.9h20.7V576.8z M764.8,599.5c0-2.9-1.2-5.1-3.5-6.4c-2.4-1.3-5.9-2-10.5-2h-9.3v17.9h9.6
			C760.2,609.1,764.8,605.9,764.8,599.5z M817.2,623.4h-20.7v-75.9h20.7V623.4z"/>
		<path class="st0" d="M818.7,624.9H795V546h23.7V624.9z M798,621.9h17.7V549H798V621.9z M752.1,624.9h-32.9V546h23.7v29.3h8.5
			c11.8,0,20.8,2,26.6,5.8c6,4,9,10.1,9,18.1c0,8.5-3,15-9,19.3C772.2,622.8,763.5,624.9,752.1,624.9z M722.2,621.9h29.9
			c10.7,0,18.8-1.9,24.1-5.8c5.2-3.8,7.7-9.3,7.7-16.9c0-7-2.5-12.1-7.7-15.6c-5.3-3.5-13.7-5.3-24.9-5.3h-11.5V549h-17.7V621.9z
			 M751,610.6h-11.1v-20.9h10.8c5,0,8.7,0.7,11.3,2.2c2.8,1.6,4.3,4.2,4.3,7.7C766.3,604.6,763.6,610.6,751,610.6z M742.9,607.6h8.1
			c11,0,12.3-4.6,12.3-8.1c0-2.4-0.9-4-2.8-5.1c-2.1-1.2-5.4-1.8-9.8-1.8h-7.8V607.6z"/>
	</g>
	<g>
		<path class="st0" d="M873.3,624.8c-12.2,0-21.8-3.4-28.7-10.1c-6.9-6.7-10.3-16.3-10.3-28.7c0-12.7,3.2-22.6,9.5-29.5
			c6.4-7,15.2-10.4,26.4-10.4c10.7,0,19.1,3.1,25.1,9.2c6,6.1,9,14.6,9,25.3v10.1h-49c0.2,5.9,2,10.5,5.2,13.8c3.3,3.3,7.8,5,13.7,5
			c4.6,0,8.9-0.5,13-1.4c4.1-1,8.3-2.5,12.8-4.6v16c-3.6,1.8-7.5,3.2-11.6,4C884.3,624.3,879.3,624.8,873.3,624.8z M870.4,560.8
			c-4.4,0-7.8,1.4-10.3,4.2c-2.5,2.8-3.9,6.7-4.3,11.9h29.1c-0.1-5.1-1.4-9.1-4-11.9C878.3,562.2,874.8,560.8,870.4,560.8z"/>
		<path class="st0" d="M873.3,626.3c-12.6,0-22.6-3.5-29.7-10.5c-7.1-7-10.8-17-10.8-29.7c0-13,3.3-23.3,9.9-30.5
			c6.6-7.2,15.9-10.9,27.5-10.9c11.1,0,19.9,3.2,26.1,9.6c6.2,6.4,9.4,15.2,9.4,26.4v11.6h-48.9c0.4,4.7,2,8.5,4.7,11.2
			c3,3,7.2,4.5,12.7,4.5c4.4,0,8.7-0.5,12.6-1.4c4-0.9,8.2-2.4,12.5-4.4l2.1-1v19.3l-0.8,0.4c-3.7,1.9-7.7,3.3-12,4.2
			C884.5,625.8,879.3,626.3,873.3,626.3z M870.3,547.5c-10.7,0-19.2,3.3-25.3,9.9c-6.1,6.6-9.2,16.2-9.2,28.5
			c0,11.9,3.3,21.2,9.9,27.6c6.6,6.4,15.9,9.7,27.6,9.7c5.8,0,10.8-0.4,14.8-1.3c3.7-0.8,7.2-2,10.4-3.5v-12.8
			c-3.8,1.6-7.4,2.9-10.9,3.7c-4.2,1-8.6,1.5-13.3,1.5c-6.3,0-11.3-1.8-14.8-5.4c-3.5-3.6-5.4-8.5-5.7-14.8l-0.1-1.6h49v-8.6
			c0-10.3-2.9-18.5-8.5-24.3C888.6,550.5,880.5,547.5,870.3,547.5z M886.4,578.3h-32.2l0.1-1.6c0.4-5.4,1.9-9.7,4.7-12.7
			c2.8-3.1,6.6-4.7,11.4-4.7c4.8,0,8.7,1.6,11.6,4.7c2.8,3,4.3,7.4,4.4,12.8L886.4,578.3z M857.4,575.3h25.8c-0.3-4-1.5-7.1-3.5-9.3
			c-2.3-2.5-5.4-3.7-9.4-3.7c-4,0-7,1.2-9.2,3.7C859.2,568.2,857.9,571.3,857.4,575.3z"/>
	</g>
	<g>
		<path class="st0" d="M1053,623.4h-19.4v-59.8l-1.1,4.2c-2.4,9.6-4.6,16.8-6.6,21.7l-13.4,34h-14.7l-13.7-34.2c-1.9-5-4-12-6.3-21
			l-1.3-4.6v59.8h-19.3v-75.9h28.5l13,32.4c1.4,3.5,2.6,7.5,3.8,12c1.2,4.5,1.9,8.4,2.3,11.6c1.5-6.8,2.7-11.7,3.5-14.6
			c0.8-3,1.8-5.7,2.7-8.2c1-2.5,5.5-13.6,13.5-33.2h28.3V623.4z"/>
		<path class="st0" d="M1054.5,624.9h-22.4v-49.7c-1.7,6.2-3.3,11.2-4.8,14.8l-13.8,34.9h-16.8l-14-35.2c-1.5-3.8-3-8.7-4.6-14.7
			v49.9h-22.3V546h31l13.4,33.3c1.4,3.5,2.7,7.6,3.8,12.2c0.4,1.6,0.7,3,1.1,4.4c0.7-3.2,1.4-5.7,1.9-7.5c0.8-3,1.8-5.8,2.8-8.3
			c0.9-2.3,4.9-12,13.5-33.2l0.4-0.9h30.8V624.9z M1035.1,621.9h16.4V549h-25.8c-8.4,20.6-12.2,30-13.1,32.3c-1,2.4-1.9,5.1-2.7,8
			c-0.8,3-2,7.9-3.5,14.6l-1.9,8.5l-1.1-8.6c-0.4-3.1-1.2-7-2.3-11.4c-1.1-4.5-2.4-8.4-3.7-11.8L984.8,549h-26v72.9h16.3v-69.3
			l4.2,15.2c2.2,8.9,4.3,15.9,6.2,20.8l13.3,33.3h12.7l13.1-33c1.9-4.8,4.1-12,6.5-21.5l4-15.7V621.9z"/>
	</g>
	<g>
		<path class="st0" d="M1122.9,623.4l-4-10.3h-0.5c-3.5,4.4-7.1,7.4-10.8,9.1c-3.7,1.7-8.5,2.5-14.4,2.5c-7.3,0-13-2.1-17.2-6.3
			c-4.2-4.2-6.3-10.1-6.3-17.8c0-8.1,2.8-14,8.5-17.8c5.6-3.8,14.1-5.9,25.5-6.3l13.2-0.4v-3.3c0-7.7-3.9-11.5-11.8-11.5
			c-6.1,0-13.2,1.8-21.4,5.5l-6.9-14c8.7-4.6,18.4-6.9,29.1-6.9c10.2,0,18,2.2,23.4,6.7c5.4,4.4,8.2,11.2,8.2,20.2v50.6H1122.9z
			 M1116.8,588.2l-8,0.3c-6,0.2-10.5,1.3-13.4,3.3c-2.9,2-4.4,5-4.4,9.1c0,5.8,3.4,8.8,10.1,8.8c4.8,0,8.6-1.4,11.5-4.1
			c2.9-2.8,4.3-6.4,4.3-11V588.2z"/>
		<path class="st0" d="M1093.2,626.3c-7.7,0-13.8-2.3-18.3-6.7c-4.5-4.4-6.7-10.8-6.7-18.9c0-8.5,3.1-15,9.1-19.1
			c5.8-4,14.7-6.2,26.3-6.6l11.7-0.4v-1.9c0-6.9-3.3-10-10.3-10c-5.8,0-12.8,1.8-20.8,5.4l-1.3,0.6l-8.1-16.6l1.3-0.7
			c8.9-4.7,18.9-7,29.8-7c10.5,0,18.7,2.4,24.4,7c5.8,4.7,8.7,11.9,8.7,21.4v52.1h-17l-3.6-9.3c-3.2,3.7-6.6,6.4-10,8
			C1104.4,625.4,1099.3,626.3,1093.2,626.3z M1105,559.8c8.7,0,13.3,4.5,13.3,13v4.8l-14.6,0.5c-11,0.4-19.3,2.4-24.7,6.1
			c-5.3,3.6-7.8,9-7.8,16.6c0,7.2,2,12.9,5.8,16.7c3.9,3.9,9.3,5.8,16.2,5.8c5.7,0,10.3-0.8,13.8-2.4c3.5-1.6,6.9-4.5,10.2-8.7
			l0.5-0.6h2.3l4,10.3h11.9v-49.1c0-8.5-2.6-15-7.6-19.1c-5.1-4.2-12.7-6.3-22.5-6.3c-9.8,0-18.9,2-27.1,6l5.6,11.4
			C1092.1,561.5,1099.1,559.8,1105,559.8z M1101,611.1c-9.5,0-11.6-5.6-11.6-10.3c0-4.6,1.7-8.1,5.1-10.3c3.2-2.1,8-3.3,14.2-3.5
			l9.6-0.3v7.8c0,5-1.6,9-4.8,12.1C1110.4,609.6,1106.2,611.1,1101,611.1z M1115.3,589.8l-6.5,0.2c-5.7,0.2-10,1.2-12.7,3
			c-2.5,1.7-3.8,4.3-3.8,7.9c0,5,2.6,7.3,8.6,7.3c4.4,0,7.9-1.2,10.5-3.7c2.6-2.5,3.9-5.7,3.9-9.9V589.8z"/>
	</g>
	<g>
		<path class="st0" d="M1221.6,547.5V563h-24.9v60.4H1176V563h-24.9v-15.6H1221.6z"/>
		<path class="st0" d="M1198.2,624.9h-23.7v-60.4h-24.9V546h73.5v18.6h-24.9V624.9z M1177.5,621.9h17.7v-60.4h24.9V549h-67.5v12.6
			h24.9V621.9z"/>
	</g>
	<g>
		<path class="st0" d="M1270.1,624.8c-12.2,0-21.8-3.4-28.7-10.1c-6.9-6.7-10.3-16.3-10.3-28.7c0-12.7,3.2-22.6,9.5-29.5
			c6.4-7,15.2-10.4,26.4-10.4c10.7,0,19.1,3.1,25.1,9.2c6,6.1,9,14.6,9,25.3v10.1h-49c0.2,5.9,2,10.5,5.2,13.8c3.3,3.3,7.8,5,13.7,5
			c4.6,0,8.9-0.5,13-1.4c4.1-1,8.3-2.5,12.8-4.6v16c-3.6,1.8-7.5,3.2-11.6,4C1281,624.3,1276,624.8,1270.1,624.8z M1267.1,560.8
			c-4.4,0-7.8,1.4-10.3,4.2c-2.5,2.8-3.9,6.7-4.3,11.9h29.1c-0.1-5.1-1.4-9.1-4-11.9C1275,562.2,1271.5,560.8,1267.1,560.8z"/>
		<path class="st0" d="M1270.1,626.3c-12.6,0-22.6-3.5-29.7-10.5c-7.1-7-10.8-17-10.8-29.7c0-13,3.3-23.3,9.9-30.5
			c6.6-7.2,15.9-10.9,27.5-10.9c11.1,0,19.9,3.2,26.1,9.6c6.2,6.4,9.4,15.2,9.4,26.4v11.6h-48.9c0.4,4.7,2,8.5,4.7,11.2
			c3,3,7.2,4.5,12.7,4.5c4.4,0,8.7-0.5,12.6-1.4c4-0.9,8.2-2.4,12.5-4.4l2.1-1v19.3l-0.8,0.4c-3.7,1.9-7.7,3.3-12,4.2
			C1281.2,625.8,1276.1,626.3,1270.1,626.3z M1267,547.5c-10.7,0-19.2,3.3-25.3,9.9c-6.1,6.6-9.2,16.2-9.2,28.5
			c0,11.9,3.3,21.2,9.9,27.6c6.6,6.4,15.9,9.7,27.6,9.7c5.8,0,10.8-0.4,14.8-1.3c3.7-0.8,7.2-2,10.4-3.5v-12.8
			c-3.8,1.6-7.4,2.9-10.9,3.7c-4.2,1-8.6,1.5-13.3,1.5c-6.3,0-11.3-1.8-14.8-5.4c-3.5-3.6-5.4-8.5-5.7-14.8l-0.1-1.6h49v-8.6
			c0-10.3-2.9-18.5-8.5-24.3C1285.3,550.5,1277.3,547.5,1267,547.5z M1283.1,578.3h-32.2l0.1-1.6c0.4-5.4,1.9-9.7,4.7-12.7
			c2.8-3.1,6.6-4.7,11.4-4.7c4.8,0,8.7,1.6,11.6,4.7c2.8,3,4.3,7.4,4.4,12.8L1283.1,578.3z M1254.2,575.3h25.8
			c-0.3-4-1.5-7.1-3.5-9.3c-2.3-2.5-5.4-3.7-9.4-3.7c-4,0-7,1.2-9.2,3.7C1255.9,568.2,1254.7,571.3,1254.2,575.3z"/>
	</g>
	<g>
		<path class="st0" d="M1359.6,624.8c-8.9,0-15.9-3.2-21-9.7h-1.1c0.7,6.3,1.1,10,1.1,11v30.8h-20.7V547.5h16.8l2.9,9.8h1
			c4.8-7.5,12-11.3,21.5-11.3c9,0,16,3.5,21.1,10.4c5.1,6.9,7.6,16.5,7.6,28.9c0,8.1-1.2,15.1-3.6,21.1c-2.4,6-5.8,10.5-10.2,13.7
			C1370.7,623.2,1365.5,624.8,1359.6,624.8z M1353.5,562.6c-5.1,0-8.9,1.6-11.2,4.7c-2.4,3.1-3.6,8.3-3.7,15.6v2.2
			c0,8.2,1.2,14,3.6,17.5c2.4,3.5,6.3,5.3,11.5,5.3c9.3,0,13.9-7.7,13.9-23c0-7.5-1.1-13.1-3.4-16.8
			C1361.9,564.5,1358.4,562.6,1353.5,562.6z"/>
		<path class="st0" d="M1340.1,658.3h-23.7V546h19.5l2.6,8.9c5.1-6.8,12.4-10.3,21.6-10.3c9.4,0,16.9,3.7,22.3,11
			c5.2,7.2,7.9,17.2,7.9,29.8c0,8.3-1.2,15.5-3.7,21.7c-2.5,6.2-6.1,11-10.7,14.3c-4.6,3.3-10.1,5-16.4,5c-8.3,0-15.1-2.7-20.2-8
			c0.6,5.8,0.7,7.2,0.7,7.8V658.3z M1319.4,655.3h17.7v-29.3c0-0.6-0.2-3-1.1-10.8l-0.2-1.7h3.5l0.5,0.6c4.8,6.1,11.3,9.1,19.8,9.1
			c5.6,0,10.5-1.5,14.6-4.4c4.1-2.9,7.4-7.3,9.6-13c2.3-5.8,3.5-12.7,3.5-20.6c0-11.9-2.5-21.3-7.3-28c-4.8-6.6-11.3-9.8-19.8-9.8
			c-9,0-15.7,3.5-20.3,10.6l-0.4,0.7h-2.9l-2.9-9.8h-14.2V655.3z M1353.7,609.5c-5.8,0-10-2-12.7-5.9c-2.6-3.8-3.9-9.8-3.9-18.4
			v-2.2c0.1-7.7,1.4-13,4-16.5c2.6-3.5,6.8-5.3,12.4-5.3c5.4,0,9.5,2.1,12,6.3c2.4,4,3.6,9.9,3.6,17.6
			C1369.2,601.3,1364,609.5,1353.7,609.5z M1353.5,564.1c-4.7,0-7.9,1.3-10,4.1c-2.2,2.9-3.3,7.8-3.4,14.7v2.2
			c0,7.8,1.1,13.4,3.4,16.7c2.1,3.1,5.5,4.6,10.3,4.6c8.4,0,12.4-7,12.4-21.5c0-7.2-1.1-12.6-3.2-16
			C1360.9,565.7,1357.8,564.1,1353.5,564.1z"/>
	</g>
	<g>
		<path class="st0" d="M1425.9,547.5v30c0,3.2-0.5,10.9-1.6,23.2l35-53.3h24.9v75.9h-20v-30.3c0-5.4,0.5-13,1.4-22.8l-34.9,53.1
			h-24.9v-75.9H1425.9z"/>
		<path class="st0" d="M1485.9,624.9h-23v-31.8c0-4.3,0.3-10,0.9-17l-32.1,48.8h-27.2V546h23v31.5c0,2.7-0.4,8.4-1.1,17.5l32.3-49
			h27.2V624.9z M1465.8,621.9h17V549h-22.6l-37.8,57.5l0.5-5.9c1-12.2,1.6-20,1.6-23.1V549h-17v72.9h22.6l37.8-57.5l-0.6,6
			c-0.9,9.7-1.4,17.4-1.4,22.7V621.9z"/>
	</g>
	<g>
		<path class="st0" d="M1554.3,623.4l-4-10.3h-0.5c-3.5,4.4-7.1,7.4-10.8,9.1c-3.7,1.7-8.5,2.5-14.4,2.5c-7.3,0-13-2.1-17.2-6.3
			c-4.2-4.2-6.3-10.1-6.3-17.8c0-8.1,2.8-14,8.5-17.8c5.6-3.8,14.1-5.9,25.5-6.3l13.2-0.4v-3.3c0-7.7-3.9-11.5-11.8-11.5
			c-6.1,0-13.2,1.8-21.4,5.5l-6.9-14c8.7-4.6,18.4-6.9,29.1-6.9c10.2,0,18,2.2,23.4,6.7c5.4,4.4,8.2,11.2,8.2,20.2v50.6H1554.3z
			 M1548.2,588.2l-8,0.3c-6,0.2-10.5,1.3-13.4,3.3c-2.9,2-4.4,5-4.4,9.1c0,5.8,3.4,8.8,10.1,8.8c4.8,0,8.6-1.4,11.5-4.1
			c2.9-2.8,4.3-6.4,4.3-11V588.2z"/>
		<path class="st0" d="M1524.6,626.3c-7.7,0-13.8-2.3-18.3-6.7c-4.5-4.4-6.7-10.8-6.7-18.9c0-8.5,3.1-15,9.1-19.1
			c5.8-4,14.7-6.2,26.3-6.6l11.7-0.4v-1.9c0-6.9-3.3-10-10.3-10c-5.8,0-12.8,1.8-20.8,5.4l-1.3,0.6l-8.1-16.6l1.3-0.7
			c8.9-4.7,18.9-7,29.8-7c10.5,0,18.7,2.4,24.4,7c5.8,4.7,8.7,11.9,8.7,21.4v52.1h-17l-3.6-9.3c-3.2,3.7-6.6,6.4-10,8
			C1535.8,625.4,1530.7,626.3,1524.6,626.3z M1536.4,559.8c8.7,0,13.3,4.5,13.3,13v4.8l-14.6,0.5c-11,0.4-19.3,2.4-24.7,6.1
			c-5.3,3.6-7.8,9-7.8,16.6c0,7.2,2,12.9,5.8,16.7c3.9,3.9,9.3,5.8,16.2,5.8c5.7,0,10.3-0.8,13.8-2.4c3.5-1.6,6.9-4.5,10.2-8.7
			l0.5-0.6h2.3l4,10.3h11.9v-49.1c0-8.5-2.6-15-7.6-19.1c-5.1-4.2-12.7-6.3-22.5-6.3c-9.8,0-18.9,2-27.1,6l5.6,11.4
			C1523.5,561.5,1530.5,559.8,1536.4,559.8z M1532.4,611.1c-9.5,0-11.6-5.6-11.6-10.3c0-4.6,1.7-8.1,5.1-10.3
			c3.2-2.1,8-3.3,14.2-3.5l9.6-0.3v7.8c0,5-1.6,9-4.8,12.1C1541.8,609.6,1537.6,611.1,1532.4,611.1z M1546.7,589.8l-6.5,0.2
			c-5.7,0.2-10,1.2-12.7,3c-2.5,1.7-3.8,4.3-3.8,7.9c0,5,2.6,7.3,8.6,7.3c4.4,0,7.9-1.2,10.5-3.7c2.6-2.5,3.9-5.7,3.9-9.9V589.8z"/>
	</g>
	<g>
		<path class="st0" d="M1658.1,623.4h-20.7V563h-19.1c-1.5,17-3.2,29.6-5.3,38c-2.1,8.4-4.9,14.4-8.3,18.1c-3.5,3.7-8,5.6-13.6,5.6
			c-4.8,0-8.7-0.7-11.8-2.2V606c2.2,0.9,4.4,1.4,6.7,1.4c2.6,0,4.7-1.9,6.5-5.6c1.7-3.7,3.3-9.9,4.7-18.6c1.4-8.7,2.6-20.6,3.6-35.8
			h57.5V623.4z"/>
		<path class="st0" d="M1591.1,626.3c-5,0-9.2-0.8-12.5-2.3l-0.9-0.4v-19.8l2.1,0.8c2,0.8,4.1,1.2,6.1,1.2c1.9,0,3.7-1.6,5.1-4.7
			c1.7-3.6,3.2-9.7,4.6-18.2c1.4-8.6,2.6-20.6,3.6-35.6l0.1-1.4h60.4v78.9h-23.7v-60.4h-16.2c-1.4,16.3-3.2,28.7-5.2,36.9
			c-2.1,8.6-5.1,14.9-8.7,18.8C1602,624.2,1597.1,626.3,1591.1,626.3z M1580.7,621.6c2.7,1.1,6.2,1.7,10.3,1.7
			c5.2,0,9.3-1.7,12.5-5.1c3.3-3.5,6-9.4,8-17.5c2.1-8.2,3.8-20.9,5.3-37.8l0.1-1.4h22v60.4h17.7V549H1602
			c-1,14.5-2.1,26.1-3.5,34.5c-1.4,8.9-3,15.1-4.8,19c-2,4.3-4.6,6.4-7.8,6.4c-1.7,0-3.4-0.3-5.2-0.7V621.6z"/>
	</g>
	<g>
		<path class="st0" d="M1700.6,576.8h10c11.6,0,20.2,1.9,25.7,5.6c5.6,3.7,8.4,9.3,8.4,16.8c0,8-2.8,14.1-8.4,18.1
			c-5.6,4.1-13.9,6.1-25,6.1h-31.4v-75.9h20.7V576.8z M1723.9,599.5c0-2.9-1.2-5.1-3.5-6.4c-2.4-1.3-5.9-2-10.5-2h-9.3v17.9h9.6
			C1719.3,609.1,1723.9,605.9,1723.9,599.5z M1776.4,623.4h-20.7v-75.9h20.7V623.4z"/>
		<path class="st0" d="M1777.9,624.9h-23.7V546h23.7V624.9z M1757.1,621.9h17.7V549h-17.7V621.9z M1711.3,624.9h-32.9V546h23.7v29.3
			h8.5c11.8,0,20.8,2,26.6,5.8c6,4,9,10.1,9,18.1c0,8.5-3,15-9,19.3C1731.4,622.8,1722.7,624.9,1711.3,624.9z M1681.3,621.9h29.9
			c10.7,0,18.8-1.9,24.1-5.8c5.2-3.8,7.7-9.3,7.7-16.9c0-7-2.5-12.1-7.7-15.6c-5.3-3.5-13.7-5.3-24.9-5.3h-11.5V549h-17.7V621.9z
			 M1710.1,610.6h-11.1v-20.9h10.8c5,0,8.7,0.7,11.3,2.2c2.8,1.6,4.3,4.2,4.3,7.7C1725.4,604.6,1722.8,610.6,1710.1,610.6z
			 M1702.1,607.6h8.1c11,0,12.3-4.6,12.3-8.1c0-2.4-0.9-4-2.8-5.1c-2.1-1.2-5.4-1.8-9.8-1.8h-7.8V607.6z"/>
	</g>
</g>
<g>
	<g>
		<polygon class="st0" points="1137.9,199 964.9,35.1 964.1,35.9 431.4,477.1 457.1,508.1 963.2,89 1110.2,228.3 		"/>
		<path class="st0" d="M456.9,510.2l-27.6-33.4l1.2-1L963.1,34.8l1.7-1.8l175.2,166l-29.8,31.5L963.1,91L456.9,510.2z M433.5,477.3
			l23.8,28.8L963.2,87l146.9,139.1l25.7-27.1L964.9,37.2L433.5,477.3z"/>
	</g>
	<g>
		<polygon class="st0" points="555.1,35.2 506.2,75.6 903.9,75.6 952.9,35.2 		"/>
		<path class="st0" d="M904.4,77.1H502l52.6-43.3H957L904.4,77.1z M510.4,74.1h393l45.3-37.3h-393L510.4,74.1z"/>
	</g>
	<g>
		<polygon class="st0" points="1089.2,142.4 1020.2,78.6 1020.2,35.1 1089.2,35.1 		"/>
		<path class="st0" d="M1090.7,145.8l-72.1-66.6V33.6h72.1V145.8z M1021.7,77.9l66.1,61V36.6h-66.1V77.9z"/>
	</g>
</g>
<g>
	<g>
		<g>
			<path class="st0" d="M433.2,389.1l-105.5,86.9c2.1,0.6,4.5,0.9,7.3,0.9c18.3,0,18.3-13.5,36.6-13.5c18.3,0,18.3,13.5,36.5,13.5
				c6.7,0,10.9-1.8,14.5-4.1l101.6-83.7H433.2z"/>
			<path class="st0" d="M408.2,478.4c-9.6,0-14.5-3.6-19.2-7.1c-4.5-3.3-8.7-6.5-17.4-6.5c-8.6,0-12.9,3.1-17.4,6.5
				c-4.7,3.5-9.5,7.1-19.2,7.1c-2.7,0-5.3-0.3-7.7-1l-2.8-0.7l108.1-89.1h95.8l-105,86.5C420.2,476.2,415.7,478.4,408.2,478.4z
				 M371.7,461.8c9.6,0,14.5,3.6,19.2,7.1c4.5,3.3,8.7,6.5,17.4,6.5c6.7,0,10.6-1.9,13.6-3.8l98.3-81h-86.3l-102.6,84.5
				c1.3,0.2,2.6,0.3,3.9,0.3c8.6,0,12.9-3.1,17.4-6.5C357.2,465.4,362,461.8,371.7,461.8z"/>
		</g>
		<g>
			<path class="st0" d="M331,389.1l-105.5,86.9c2.1,0.6,4.5,0.9,7.3,0.9c18.3,0,18.3-13.5,36.6-13.5c18.3,0,18.3,13.5,36.5,13.5
				c6.7,0,10.9-1.8,14.5-4.1L422,389.1H331z"/>
			<path class="st0" d="M306,478.4c-9.6,0-14.5-3.6-19.2-7.1c-4.5-3.3-8.7-6.5-17.4-6.5c-8.6,0-12.9,3.1-17.4,6.5
				c-4.7,3.5-9.5,7.1-19.2,7.1c-2.7,0-5.3-0.3-7.7-1l-2.8-0.7l108.1-89.1h95.8l-105,86.5C317.9,476.2,313.5,478.4,306,478.4z
				 M269.4,461.8c9.6,0,14.5,3.6,19.2,7.1c4.5,3.3,8.7,6.5,17.4,6.5c6.7,0,10.6-1.9,13.6-3.8l98.3-81h-86.3l-102.6,84.5
				c1.3,0.2,2.6,0.3,3.9,0.3c8.6,0,12.9-3.1,17.4-6.5C254.9,465.4,259.8,461.8,269.4,461.8z"/>
		</g>
		<g>
			<path class="st0" d="M229.6,389.1l-105.5,86.9c2.1,0.6,4.5,0.9,7.3,0.9c18.3,0,18.3-13.5,36.6-13.5c18.3,0,18.3,13.5,36.5,13.5
				c6.7,0,10.9-1.8,14.5-4.1l101.6-83.7H229.6z"/>
			<path class="st0" d="M204.6,478.4c-9.6,0-14.5-3.6-19.2-7.1c-4.5-3.3-8.7-6.5-17.4-6.5c-8.6,0-12.9,3.1-17.4,6.5
				c-4.7,3.5-9.5,7.1-19.2,7.1c-2.7,0-5.3-0.3-7.7-1l-2.8-0.7l108.1-89.1h95.8l-105,86.5C216.5,476.2,212.1,478.4,204.6,478.4z
				 M168,461.8c9.6,0,14.5,3.6,19.2,7.1c4.5,3.3,8.7,6.5,17.4,6.5c6.7,0,10.6-1.9,13.6-3.8l98.3-81h-86.3l-102.6,84.5
				c1.3,0.2,2.6,0.3,3.9,0.3c8.6,0,12.9-3.1,17.4-6.5C153.5,465.4,158.4,461.8,168,461.8z"/>
		</g>
		<g>
			<path class="st0" d="M127.4,389.1L21.9,475.9c2.1,0.6,4.5,0.9,7.3,0.9c18.3,0,18.3-13.5,36.6-13.5c18.3,0,18.3,13.5,36.5,13.5
				c6.7,0,10.9-1.8,14.5-4.1l101.6-83.7H127.4z"/>
			<path class="st0" d="M102.3,478.4c-9.6,0-14.5-3.6-19.2-7.1c-4.5-3.3-8.7-6.5-17.4-6.5c-8.6,0-12.9,3.1-17.4,6.5
				c-4.7,3.5-9.5,7.1-19.2,7.1c-2.7,0-5.3-0.3-7.7-1l-2.8-0.7l108.1-89.1h95.8l-105,86.5C114.3,476.2,109.8,478.4,102.3,478.4z
				 M65.8,461.8c9.6,0,14.5,3.6,19.2,7.1c4.5,3.3,8.7,6.5,17.4,6.5c6.7,0,10.6-1.9,13.6-3.8l98.3-81h-86.3L25.3,475.1
				c1.3,0.2,2.6,0.3,3.9,0.3c8.6,0,12.9-3.1,17.4-6.5C51.3,465.4,56.1,461.8,65.8,461.8z"/>
		</g>
	</g>
	<g>
		<g>
			<path class="st0" d="M556.6,286.9l-105.5,86.9c2.1,0.6,4.5,0.9,7.3,0.9c18.3,0,18.3-13.5,36.6-13.5c18.3,0,18.3,13.5,36.5,13.5
				c6.7,0,10.9-1.8,14.5-4.1l101.6-83.7H556.6z"/>
			<path class="st0" d="M531.6,376.3c-9.6,0-14.5-3.6-19.2-7.1c-4.5-3.3-8.7-6.5-17.4-6.5c-8.6,0-12.9,3.1-17.4,6.5
				c-4.7,3.5-9.5,7.1-19.2,7.1c-2.7,0-5.3-0.3-7.7-1l-2.8-0.7l108.1-89.1h95.8l-105,86.5C543.5,374.1,539.1,376.3,531.6,376.3z
				 M495,359.7c9.6,0,14.5,3.6,19.2,7.1c4.5,3.3,8.7,6.5,17.4,6.5c6.7,0,10.6-1.9,13.6-3.8l98.3-81h-86.3L454.5,373
				c1.3,0.2,2.6,0.3,3.9,0.3c8.6,0,12.9-3.1,17.4-6.5C480.5,363.3,485.4,359.7,495,359.7z"/>
		</g>
		<g>
			<path class="st0" d="M454.4,286.9l-105.5,86.9c2.1,0.6,4.5,0.9,7.3,0.9c18.3,0,18.3-13.5,36.6-13.5c18.3,0,18.3,13.5,36.5,13.5
				c6.7,0,10.9-1.8,14.5-4.1l101.6-83.7H454.4z"/>
			<path class="st0" d="M429.3,376.3c-9.6,0-14.5-3.6-19.2-7.1c-4.5-3.3-8.7-6.5-17.4-6.5c-8.6,0-12.9,3.1-17.4,6.5
				c-4.7,3.5-9.5,7.1-19.2,7.1c-2.7,0-5.3-0.3-7.7-1l-2.8-0.7l108.1-89.1h95.8l-105,86.5C441.3,374.1,436.8,376.3,429.3,376.3z
				 M392.8,359.7c9.6,0,14.5,3.6,19.2,7.1c4.5,3.3,8.7,6.5,17.4,6.5c6.7,0,10.6-1.9,13.6-3.8l98.3-81h-86.3L352.3,373
				c1.3,0.2,2.6,0.3,3.9,0.3c8.6,0,12.9-3.1,17.4-6.5C378.3,363.3,383.1,359.7,392.8,359.7z"/>
		</g>
		<g>
			<path class="st0" d="M352.9,286.9l-105.5,86.9c2.1,0.6,4.5,0.9,7.3,0.9c18.3,0,18.3-13.5,36.6-13.5c18.3,0,18.3,13.5,36.5,13.5
				c6.7,0,10.9-1.8,14.5-4.1L444,286.9H352.9z"/>
			<path class="st0" d="M327.9,376.3c-9.6,0-14.5-3.6-19.2-7.1c-4.5-3.3-8.7-6.5-17.4-6.5c-8.6,0-12.9,3.1-17.4,6.5
				c-4.7,3.5-9.5,7.1-19.2,7.1c-2.7,0-5.3-0.3-7.7-1l-2.8-0.7l108.1-89.1h95.8l-105,86.5C339.9,374.1,335.4,376.3,327.9,376.3z
				 M291.4,359.7c9.6,0,14.5,3.6,19.2,7.1c4.5,3.3,8.7,6.5,17.4,6.5c6.7,0,10.6-1.9,13.6-3.8l98.3-81h-86.3L250.9,373
				c1.3,0.2,2.6,0.3,3.9,0.3c8.6,0,12.9-3.1,17.4-6.5C276.9,363.3,281.7,359.7,291.4,359.7z"/>
		</g>
		<g>
			<path class="st0" d="M250.7,286.9l-105.5,86.9c2.1,0.6,4.5,0.9,7.3,0.9c18.3,0,18.3-13.5,36.6-13.5c18.3,0,18.3,13.5,36.5,13.5
				c6.7,0,10.9-1.8,14.5-4.1l101.6-83.7H250.7z"/>
			<path class="st0" d="M225.7,376.3c-9.6,0-14.5-3.6-19.2-7.1c-4.5-3.3-8.7-6.5-17.4-6.5c-8.6,0-12.9,3.1-17.4,6.5
				c-4.7,3.5-9.5,7.1-19.2,7.1c-2.7,0-5.3-0.3-7.7-1l-2.8-0.7l108.1-89.1h95.8l-105,86.5C237.6,374.1,233.2,376.3,225.7,376.3z
				 M189.1,359.7c9.6,0,14.5,3.6,19.2,7.1c4.5,3.3,8.7,6.5,17.4,6.5c6.7,0,10.6-1.9,13.6-3.8l98.3-81h-86.3L148.6,373
				c1.3,0.2,2.6,0.3,3.9,0.3c8.6,0,12.9-3.1,17.4-6.5C174.6,363.3,179.5,359.7,189.1,359.7z"/>
		</g>
	</g>
	<g>
		<g>
			<path class="st0" d="M680,184.8l-105.5,86.9c2.1,0.6,4.5,0.9,7.3,0.9c18.3,0,18.3-13.5,36.6-13.5c18.3,0,18.3,13.5,36.5,13.5
				c6.7,0,10.9-1.8,14.5-4.1L771,184.8H680z"/>
			<path class="st0" d="M654.9,274.1c-9.6,0-14.5-3.6-19.2-7.1c-4.5-3.3-8.7-6.5-17.4-6.5c-8.6,0-12.9,3.1-17.4,6.5
				c-4.7,3.5-9.5,7.1-19.2,7.1c-2.7,0-5.3-0.3-7.7-1l-2.8-0.7l108.1-89.1h95.8l-105,86.5C666.9,272,662.4,274.1,654.9,274.1z
				 M618.4,257.6c9.6,0,14.5,3.6,19.2,7.1c4.5,3.3,8.7,6.5,17.4,6.5c6.7,0,10.6-1.9,13.6-3.8l98.3-81h-86.3l-102.6,84.5
				c1.3,0.2,2.6,0.3,3.9,0.3c8.6,0,12.9-3.1,17.4-6.5C603.9,261.2,608.7,257.6,618.4,257.6z"/>
		</g>
		<g>
			<path class="st0" d="M577.7,184.8l-105.5,86.9c2.1,0.6,4.5,0.9,7.3,0.9c18.3,0,18.3-13.5,36.6-13.5c18.3,0,18.3,13.5,36.5,13.5
				c6.7,0,10.9-1.8,14.5-4.1l101.6-83.7H577.7z"/>
			<path class="st0" d="M552.7,274.1c-9.6,0-14.5-3.6-19.2-7.1c-4.5-3.3-8.7-6.5-17.4-6.5c-8.6,0-12.9,3.1-17.4,6.5
				c-4.7,3.5-9.5,7.1-19.2,7.1c-2.7,0-5.3-0.3-7.7-1l-2.8-0.7l108.1-89.1h95.8l-105,86.5C564.6,272,560.2,274.1,552.7,274.1z
				 M516.1,257.6c9.6,0,14.5,3.6,19.2,7.1c4.5,3.3,8.7,6.5,17.4,6.5c6.7,0,10.6-1.9,13.6-3.8l98.3-81h-86.3l-102.6,84.5
				c1.3,0.2,2.6,0.3,3.9,0.3c8.6,0,12.9-3.1,17.4-6.5C501.7,261.2,506.5,257.6,516.1,257.6z"/>
		</g>
		<g>
			<path class="st0" d="M476.3,184.8l-105.5,86.9c2.1,0.6,4.5,0.9,7.3,0.9c18.3,0,18.3-13.5,36.6-13.5c18.3,0,18.3,13.5,36.5,13.5
				c6.7,0,10.9-1.8,14.5-4.1l101.6-83.7H476.3z"/>
			<path class="st0" d="M451.3,274.1c-9.6,0-14.5-3.6-19.2-7.1c-4.5-3.3-8.7-6.5-17.4-6.5c-8.6,0-12.9,3.1-17.4,6.5
				c-4.7,3.5-9.5,7.1-19.2,7.1c-2.7,0-5.3-0.3-7.7-1l-2.8-0.7l108.1-89.1h95.8l-105,86.5C463.2,272,458.8,274.1,451.3,274.1z
				 M414.7,257.6c9.6,0,14.5,3.6,19.2,7.1c4.5,3.3,8.7,6.5,17.4,6.5c6.7,0,10.6-1.9,13.6-3.8l98.3-81h-86.3l-102.6,84.5
				c1.3,0.2,2.6,0.3,3.9,0.3c8.6,0,12.9-3.1,17.4-6.5C400.2,261.2,405.1,257.6,414.7,257.6z"/>
		</g>
		<g>
			<path class="st0" d="M374.1,184.8l-105.5,86.9c2.1,0.6,4.5,0.9,7.3,0.9c18.3,0,18.3-13.5,36.6-13.5c18.3,0,18.3,13.5,36.5,13.5
				c6.7,0,10.9-1.8,14.5-4.1l101.6-83.7H374.1z"/>
			<path class="st0" d="M349,274.1c-9.6,0-14.5-3.6-19.2-7.1c-4.5-3.3-8.7-6.5-17.4-6.5c-8.6,0-12.9,3.1-17.4,6.5
				c-4.7,3.5-9.5,7.1-19.2,7.1c-2.7,0-5.3-0.3-7.7-1l-2.8-0.7l108.1-89.1h95.8l-105,86.5C361,272,356.5,274.1,349,274.1z
				 M312.5,257.6c9.6,0,14.5,3.6,19.2,7.1c4.5,3.3,8.7,6.5,17.4,6.5c6.7,0,10.6-1.9,13.6-3.8l98.3-81h-86.3L272,270.9
				c1.3,0.2,2.6,0.3,3.9,0.3c8.6,0,12.9-3.1,17.4-6.5C298,261.2,302.9,257.6,312.5,257.6z"/>
		</g>
	</g>
	<g>
		<g>
			<path class="st0" d="M803.3,82.7l-105.5,86.9c2.1,0.6,4.5,0.9,7.3,0.9c18.3,0,18.3-13.5,36.6-13.5c18.3,0,18.3,13.5,36.5,13.5
				c6.7,0,10.9-1.8,14.5-4.1l101.6-83.7H803.3z"/>
			<path class="st0" d="M778.3,172c-9.6,0-14.5-3.6-19.2-7.1c-4.5-3.3-8.7-6.5-17.4-6.5c-8.6,0-12.9,3.1-17.4,6.5
				c-4.7,3.5-9.5,7.1-19.2,7.1c-2.7,0-5.3-0.3-7.7-1l-2.8-0.7l108.1-89.1h95.8l-105,86.5C790.2,169.8,785.8,172,778.3,172z
				 M741.7,155.5c9.6,0,14.5,3.6,19.2,7.1c4.5,3.3,8.7,6.5,17.4,6.5c6.7,0,10.6-1.9,13.6-3.8l98.3-81h-86.3l-102.6,84.5
				c1.3,0.2,2.6,0.3,3.9,0.3c8.6,0,12.9-3.1,17.4-6.5C727.3,159.1,732.1,155.5,741.7,155.5z"/>
		</g>
		<g>
			<path class="st0" d="M701.1,82.7l-105.5,86.9c2.1,0.6,4.5,0.9,7.3,0.9c18.3,0,18.3-13.5,36.6-13.5c18.3,0,18.3,13.5,36.5,13.5
				c6.7,0,10.9-1.8,14.5-4.1l101.6-83.7H701.1z"/>
			<path class="st0" d="M676,172c-9.6,0-14.5-3.6-19.2-7.1c-4.5-3.3-8.7-6.5-17.4-6.5c-8.6,0-12.9,3.1-17.4,6.5
				c-4.7,3.5-9.5,7.1-19.2,7.1c-2.7,0-5.3-0.3-7.7-1l-2.8-0.7l108.1-89.1h95.8l-105,86.5C688,169.8,683.5,172,676,172z M639.5,155.5
				c9.6,0,14.5,3.6,19.2,7.1c4.5,3.3,8.7,6.5,17.4,6.5c6.7,0,10.6-1.9,13.6-3.8l98.3-81h-86.3L599,168.8c1.3,0.2,2.6,0.3,3.9,0.3
				c8.6,0,12.9-3.1,17.4-6.5C625,159.1,629.9,155.5,639.5,155.5z"/>
		</g>
		<g>
			<path class="st0" d="M599.7,82.7l-105.5,86.9c2.1,0.6,4.5,0.9,7.3,0.9c18.3,0,18.3-13.5,36.6-13.5c18.3,0,18.3,13.5,36.5,13.5
				c6.7,0,10.9-1.8,14.5-4.1l101.6-83.7H599.7z"/>
			<path class="st0" d="M574.6,172c-9.6,0-14.5-3.6-19.2-7.1c-4.5-3.3-8.7-6.5-17.4-6.5c-8.6,0-12.9,3.1-17.4,6.5
				c-4.7,3.5-9.5,7.1-19.2,7.1c-2.7,0-5.3-0.3-7.7-1l-2.8-0.7l108.1-89.1h95.8l-105,86.5C586.6,169.8,582.1,172,574.6,172z
				 M538.1,155.5c9.6,0,14.5,3.6,19.2,7.1c4.5,3.3,8.7,6.5,17.4,6.5c6.7,0,10.6-1.9,13.6-3.8l98.3-81h-86.3l-102.6,84.5
				c1.3,0.2,2.6,0.3,3.9,0.3c8.6,0,12.9-3.1,17.4-6.5C523.6,159.1,528.4,155.5,538.1,155.5z"/>
		</g>
		<g>
			<path class="st0" d="M497.4,82.7L392,169.6c2.1,0.6,4.5,0.9,7.3,0.9c18.3,0,18.3-13.5,36.6-13.5c18.3,0,18.3,13.5,36.5,13.5
				c6.7,0,10.9-1.8,14.5-4.1l101.6-83.7H497.4z"/>
			<path class="st0" d="M472.4,172c-9.6,0-14.5-3.6-19.2-7.1c-4.5-3.3-8.7-6.5-17.4-6.5c-8.6,0-12.9,3.1-17.4,6.5
				c-4.7,3.5-9.5,7.1-19.2,7.1c-2.7,0-5.3-0.3-7.7-1l-2.8-0.7l108.1-89.1h95.8l-105,86.5C484.3,169.8,479.9,172,472.4,172z
				 M435.8,155.5c9.6,0,14.5,3.6,19.2,7.1c4.5,3.3,8.7,6.5,17.4,6.5c6.7,0,10.6-1.9,13.6-3.8l98.3-81H498l-102.6,84.5
				c1.3,0.2,2.6,0.3,3.9,0.3c8.6,0,12.9-3.1,17.4-6.5C421.4,159.1,426.2,155.5,435.8,155.5z"/>
		</g>
	</g>
</g>
<path class="st1" d="M1635.3,434.8c0-20.1-0.4-40.3,0.2-60.4c0.2-8-1.9-11.6-10.1-10c-12.4,2.4-15.4-3.2-14.5-14.7
	c1-13.5,0.9-27.2,0-40.7c-0.6-9.7,1.9-14,12.1-12.2c9,1.6,12.3-1,13-11.4c3-42.5,23.3-62.1,68.9-67.5c21.9-2.6,43.6-0.1,65.3,3.9
	c5.9,1.1,7,3.2,6.5,8.5c-1.2,14.8-2.2,29.7-2.9,44.5c-0.3,6.9-1.9,9.9-10,8.5c-8.5-1.4-17.4-0.9-26.2-0.5
	c-6.1,0.2-10.2,4.2-9.8,10.1c0.6,7,6.8,3.4,10.5,3.8c9.9,1,23.5-4.2,28.8,2.2c5,6.1,1.6,19.2,1.8,29.2c0,0.4,0,0.9,0,1.3
	c-0.6,11.3,4.6,25.6-2,33c-6.2,6.9-20.7,2.1-31.5,1.9c-7.8-0.1-8.1,3.4-8.1,9.4c0.2,40.3-0.2,80.6,0.3,120.9
	c0.1,8.6-1.2,12.2-11,11.9c-23.6-0.8-47.3-0.7-70.9,0c-8.9,0.3-10.8-2.7-10.6-11C1635.7,475.1,1635.3,454.9,1635.3,434.8z"/>
<path class="st1" d="M1051.9,407.7c-3.9-6.5-4.4-9.7,3-14.8c35.9-25,49.1-74.2,31.8-114.4c-15.5-36-46-49.9-82.2-53.5
	c-47.1-4.8-94.5-1-141.7-2.2c-8.6-0.2-8.7,4-8.7,10.3c0.1,87.6,0.2,175.2-0.1,262.7c0,7.5,1,10.7,9.7,10.5c24.5-0.7,49-0.5,73.6-0.1
	c7.3,0.1,9.6-1.8,9.5-9.3c-0.5-25-0.3-49.9,0-74.9c0.1-3.4-3.8-9.1,3.7-10.4c6.1-1.1,9.2,1.7,11.8,7.2
	c12.3,26.5,25.1,52.7,37.4,79.2c2.7,5.9,5.9,8.4,12.7,8.3c32-0.4,63.9-0.2,98-0.2C1090.2,472,1071.2,439.8,1051.9,407.7z
	 M974.3,341.8c-27.9,3.2-27.9,3.2-27.9-24.5c0-25.2,0-25.2,25.4-24.4c17.2,0.5,27.5,8.8,28.4,22.5
	C1001.1,330.8,992.3,339.8,974.3,341.8z"/>
<path class="st1" d="M1312.4,318c-24.4-21.7-54.4-28.3-92.1-28.6c-9.1-0.5-23.8,1.9-38.1,5.9c-46.7,13.1-75,49.4-77,98.7
	c-2.1,49.1,23.2,88,68.8,104.7c25.9,9.5,52.8,11.4,80,6.4c42.5-7.8,75.8-28.6,87.8-72.1C1353.6,390,1347.9,349.4,1312.4,318z
	 M1249.3,419.6c-8.7,14.4-29.6,17.6-41.8,6.1c-13.5-12.7-13.6-44.9,0.2-57.5c8.5-7.7,18.5-9.2,29.2-4.9
	c11.5,4.6,17.6,16.4,17.5,33.7C1254.4,405,1253.6,412.6,1249.3,419.6z"/>
<path class="st1" d="M1567.1,317.8c-24.5-21.6-54.5-28.1-86.3-28.1c-11-0.6-21.8,0.8-32.6,2.9c-51.3,9.7-83.1,45.1-88,97.9
	c-4.5,48.9,22.2,91.6,68.9,108.5c26,9.4,52.9,11.3,80.1,6.2c42.5-7.9,75.7-28.8,87.6-72.3C1608.5,389.7,1602.7,349.1,1567.1,317.8z
	 M1474.4,431.9c-17.6-3.6-26.9-26.5-20.2-49.9c4.7-16.5,21.3-24.9,37.1-18.8c11.8,4.5,18,16,18.1,33.3
	C1509.5,422.3,1495.7,436.2,1474.4,431.9z"/>
</svg>
